<svg xmlns="http://www.w3.org/2000/svg" viewBox="0 0 59.15 10.85"><title>logo</title><g fill="#005694"><path fill-rule="evenodd" d="M13.73 9.48c0-.09 0-.13.07-.23s0-.17.05-.25l.85-3.56a7.66 7.66 0 0 1 1.69-.05 3 3 0 0 1 .84.29 1.63 1.63 0 0 1 .68.78 2 2 0 0 1-.29 1.74 2.76 2.76 0 0 1-1 .81 7 7 0 0 1-2.89.48zM17.49 0h.08a3.2 3.2 0 0 1 2.4.91 1.91 1.91 0 0 1 .08 1.94 2.54 2.54 0 0 1-.81 1 4 4 0 0 1-1.13.6v.06a3.08 3.08 0 0 1 1.45.71 2.35 2.35 0 0 1 .29 2.89 4 4 0 0 1-.71 1l-.24.21a3.94 3.94 0 0 1-.48.38 5.36 5.36 0 0 1-.81.46 8.07 8.07 0 0 1-3.69.6h-3.35v-.09a1.55 1.55 0 0 0 .89-.87 35.32 35.32 0 0 0 .89-3.52l1-4.23a6.69 6.69 0 0 0 .16-.72c.06-.4 0-1.16-.45-1.2V.04h4.46zm-2.54 4.28a5.19 5.19 0 0 0 .2-.77c.06-.27.13-.54.19-.79.13-.53.25-1.05.37-1.57a2.77 2.77 0 0 1 1.87.1 1.05 1.05 0 0 1 .47.65 1.8 1.8 0 0 1-1.23 2 5.17 5.17 0 0 1-1.88.37zm28.25-.69c0 .21.25.18.34.51v.25c0 .3-.89 4-1 4.73a1.92 1.92 0 0 1-.54 1.2 1.18 1.18 0 0 1-.37.23v.09h3a1.57 1.57 0 0 1-.39-.71c0-.28.49-2.36.57-2.73s.12-.6.2-.9a1.77 1.77 0 0 1 1.3-1.43 1.73 1.73 0 0 1 1.35.16c.73.63.33 1.71.16 2.54l-.39 1.77c-.31 1.27-.83 1-.85 1.31h2.92v-.12a.46.46 0 0 1-.22-.18 1.28 1.28 0 0 1-.06-1l.31-1.33a19.8 19.8 0 0 0 .52-2.76 1.59 1.59 0 0 0-.19-.88 1.43 1.43 0 0 0-.44-.47 3.67 3.67 0 0 0-3.74.12 1 1 0 0 1-.19.14 3.86 3.86 0 0 0 .15-.7 3.45 3.45 0 0 0-.5.13h-1.9z"/><path fill-rule="evenodd" d="M40.57 7.42a3 3 0 0 1-.52 1.1 2.19 2.19 0 0 1-1.74 1 1.35 1.35 0 0 1-1.32-.82 3.38 3.38 0 0 1 0-1.87 3.28 3.28 0 0 1 .92-1.51 2.3 2.3 0 0 1 .49-.33 1.7 1.7 0 0 1 2 .27 2.62 2.62 0 0 1 .15 2.21zm-5.59.42a2.85 2.85 0 0 0 .48 1.8 2.89 2.89 0 0 0 2.28 1.15 4.23 4.23 0 0 0 2.52-.63l.18-.1.16-.12a4.64 4.64 0 0 0 2-3.43 2.89 2.89 0 0 0-.26-1.56 1.16 1.16 0 0 0-.1-.21c-1.16-1.89-3.68-1.57-5.29-.48a4.65 4.65 0 0 0-2 3.58zm20.59-2.03h-3c.05-.08.09-.1.15-.19a2 2 0 0 1 1.4-.94 1.5 1.5 0 0 1 1.05.23 1 1 0 0 1 .44.9zm-5.53 2a3.07 3.07 0 0 0 3.34 3 6.51 6.51 0 0 0 1.78-.13 3.45 3.45 0 0 0 .46-.12.51.51 0 0 0 .49-.36c0-.08.07-.11.12-.18a9.23 9.23 0 0 0 .62-1.11 1.61 1.61 0 0 0-.35.16 8.5 8.5 0 0 1-1.57.5 2.84 2.84 0 0 1-2.73-.75 1.61 1.61 0 0 1-.25-.79 5.1 5.1 0 0 1 .07-.95h5.32a3.48 3.48 0 0 0-.06-1.55 3.24 3.24 0 0 0-.46-.91 3.67 3.67 0 0 0-4.93-.39l-.49.42a5.12 5.12 0 0 0-1.36 3.2zm-26.98-2a2.37 2.37 0 0 1 1.23-1.05 1.74 1.74 0 0 1 1.34.16 1 1 0 0 1 .44.86h-3.01zm-2.52 2c0 2 1.72 3 3.5 3a6.48 6.48 0 0 0 1.5-.12 4.46 4.46 0 0 0 .94-.28l.67-1.12a1 1 0 0 0 .2-.41l-.37.15a6.75 6.75 0 0 1-1.57.49 6.1 6.1 0 0 1-1.44 0 2.35 2.35 0 0 1-.77-.26 1.53 1.53 0 0 1-.76-1.31 2.54 2.54 0 0 1 .1-.91h5.29a3 3 0 0 0-.63-2.59 2.63 2.63 0 0 0-1-.75 4.14 4.14 0 0 0-4.4 1.07 5.17 5.17 0 0 0-1.23 3.09z"/><path fill-rule="evenodd" d="M31.63 4.53a4 4 0 0 0 .73 0c-.18.77-.59 2.77-.79 3.44-.4 1.35-.46 2.88 1.43 2.88a1.08 1.08 0 0 0 .86-.23l.46-.66a1.72 1.72 0 0 0 .29-.47 1.16 1.16 0 0 1-.75.08.69.69 0 0 1-.51-.43 3 3 0 0 1 .14-1.56c.07-.29.6-2.82.69-3h1.25l.3-1.31h-1.24a2.69 2.69 0 0 0 .11-.49l.31-1.57h-1c-.07.15-.1.36-.17.53a4.54 4.54 0 0 1-.21.49 2.78 2.78 0 0 1-1 1.12 1.54 1.54 0 0 1-.49.21c-.29.07-.24.09-.31.39a2.48 2.48 0 0 0-.12.6zM29.41.46c0 .16.08.13.17.22.39.38.12 1.11 0 1.63l-.46 2c-.09.44-.2.91-.3 1.37l-.61 2.71a4.31 4.31 0 0 1-.62 1.87 1.71 1.71 0 0 1-.23.19c-.12.09-.19.06-.21.22h2.95v-.12a.62.62 0 0 1-.35-.44 1.42 1.42 0 0 1 0-.69c.2-.84.38-1.81.59-2.62L31.82.19a4.87 4.87 0 0 1-1.13.21h-.66a5.74 5.74 0 0 1-.67 0zM.06 6.05c0 .27.1.51.12.76h6c.38 0 .29.06.77-.48a1.52 1.52 0 0 0 .33-.43H.08v.15zM0 5.26h7.81a.5.5 0 0 1 .1-.17 2.54 2.54 0 0 0 .27-.58H.07c0 .25-.06.48-.06.76zm1.12 3.31h4.16c.11 0 .09-.1.18-.28a3.67 3.67 0 0 1 .34-.64 1.05 1.05 0 0 0 .18-.3H.42a2.61 2.61 0 0 0 .46 1 .5.5 0 0 0 .23.25zm3.01-5.41H.45c0 .15-.14.37-.18.55h3.86a.74.74 0 0 0 .85.48.67.67 0 0 0 .6-.46h2.89a4.66 4.66 0 0 0 .06-.58l-2.96-.04a.34.34 0 0 0-.09-.18 1 1 0 0 0-.14-.14.9.9 0 0 0-1 0 1.35 1.35 0 0 0-.24.33zm1.61 5.38h3.74a4.24 4.24 0 0 0 .67-1.19H6.66c-.24 0-.26 0-.44.26a3 3 0 0 0-.47.93zm-.67 2.07a4.92 4.92 0 0 0 2.42-.47 4.07 4.07 0 0 0 .67-.37 3.53 3.53 0 0 0 1-.81H5.57l-.25.79a5.74 5.74 0 0 0-.21.86zm-.36 0a3.58 3.58 0 0 1 .09-.42c.06-.22.36-1.12.36-1.25H1.42c0 .17.06.11.28.33a6.21 6.21 0 0 0 1.49 1 4.47 4.47 0 0 0 1.51.38zM.94 2.4h7.54c0-.18-.11-.27-.12-.42H1.52c-.23 0-.28 0-.38.1a.63.63 0 0 0-.19.32zm6.71 3.53a.94.94 0 0 1-.18.22 5.55 5.55 0 0 0-.55.66h3.43a3.93 3.93 0 0 0 .15-.91H7.64zm.55-.7h2.37a7.12 7.12 0 0 0-.06-.73H8.57l-.37.73zM2.12 1.22h5.65A.5.5 0 0 0 7.5.95H2.42a.38.38 0 0 0-.17.1.29.29 0 0 0-.13.17zM8.9 3.71h1.37a1.81 1.81 0 0 0-.18-.52H8.97a4.34 4.34 0 0 0-.06.52zM3.97.28h2.6A5.14 5.14 0 0 0 4.44.15h-.27a.41.41 0 0 0-.24.09zM8.84 2.4h.73a1 1 0 0 0-.25-.39 1.56 1.56 0 0 0-.64 0 4.08 4.08 0 0 0 .12.42zm-.63-1.22h.23a.49.49 0 0 0-.45-.24l.22.23z"/><path d="M57.57 4.74v-.92h-.34V3.7h.83v.12h-.39v.92h-.1zm.62 0v-1h.21l.25.74.05.15a1.7 1.7 0 0 1 .05-.17l.25-.73h.18v1h-.13v-.87l-.3.87h-.18l-.3-.89v.89h-.14z"/></g></svg>